<svg width="24" height="31" viewBox="0 0 24 31" fill="none" xmlns="http://www.w3.org/2000/svg">
<path d="M0 23.4456C0 24.8428 0.353803 25.8907 1.06141 26.5893C1.76901 27.2878 2.83042 27.6371 4.24564 27.6371H20.1599C21.3678 27.6371 22.3098 27.2878 22.9859 26.5893C23.662 25.8907 24 24.8428 24 23.4456V9.45126C24 8.05408 23.6439 7.00619 22.9318 6.30759C22.2197 5.60901 21.1605 5.25972 19.7544 5.25972H17.591C17.5729 4.31324 17.3092 3.44113 16.8 2.64338C16.2907 1.84563 15.6168 1.20563 14.7785 0.72338C13.9403 0.241127 13.0118 0 11.9932 0C10.9746 0 10.0462 0.241127 9.20788 0.72338C8.36957 1.20563 7.69802 1.84563 7.19323 2.64338C6.68845 3.44113 6.42253 4.31324 6.39549 5.25972H4.24564C2.83042 5.25972 1.76901 5.60901 1.06141 6.30759C0.353803 7.00619 0 8.05408 0 9.45126V23.4456ZM8.57239 5.25972C8.59042 4.6738 8.75267 4.13746 9.05915 3.6507C9.36563 3.16395 9.77351 2.77634 10.2828 2.48789C10.7921 2.19944 11.3622 2.05522 11.9932 2.05522C12.6332 2.05522 13.2079 2.19944 13.7172 2.48789C14.2265 2.77634 14.6321 3.16395 14.934 3.6507C15.236 4.13746 15.3961 4.6738 15.4141 5.25972H8.57239Z" fill="#6FBC29"/>
</svg>
