<svg width="29" height="29" viewBox="0 0 29 29" fill="none" xmlns="http://www.w3.org/2000/svg">
<path d="M8.45598 0C3.79302 0 0 3.79652 0 8.46069V20.544C0 25.207 3.79652 29 8.46069 29H20.544C25.207 29 29 25.2035 29 20.5393V8.45598C29 3.79302 25.2035 0 20.5393 0H8.45598ZM22.9583 4.83333C23.6253 4.83333 24.1667 5.37467 24.1667 6.04167C24.1667 6.70867 23.6253 7.25 22.9583 7.25C22.2913 7.25 21.75 6.70867 21.75 6.04167C21.75 5.37467 22.2913 4.83333 22.9583 4.83333ZM14.5 7.25C18.4984 7.25 21.75 10.5016 21.75 14.5C21.75 18.4984 18.4984 21.75 14.5 21.75C10.5016 21.75 7.25 18.4984 7.25 14.5C7.25 10.5016 10.5016 7.25 14.5 7.25ZM14.5 9.66667C11.8306 9.66667 9.66667 11.8306 9.66667 14.5C9.66667 17.1694 11.8306 19.3333 14.5 19.3333C17.1694 19.3333 19.3333 17.1694 19.3333 14.5C19.3333 11.8306 17.1694 9.66667 14.5 9.66667Z" fill="#6FBC29"/>
</svg>
