<svg width="29" height="29" viewBox="0 0 29 29" fill="none" xmlns="http://www.w3.org/2000/svg">
<g clip-path="url(#clip0_61_164)">
<path d="M14.4929 29C16.4727 29 18.3364 28.6211 20.0841 27.8634C21.8318 27.1055 23.3734 26.0588 24.709 24.7233C26.0447 23.3876 27.0914 21.8459 27.8491 20.0983C28.607 18.3506 28.9859 16.4869 28.9859 14.5071C28.9859 12.5274 28.607 10.6637 27.8491 8.916C27.0914 7.16833 26.0447 5.62668 24.709 4.29106C23.3734 2.95544 21.8294 1.90873 20.0769 1.15092C18.3246 0.393121 16.4585 0.0142212 14.4787 0.0142212C12.499 0.0142212 10.6353 0.393121 8.88758 1.15092C7.1399 1.90873 5.60062 2.95544 4.26973 4.29106C2.93884 5.62668 1.8945 7.16833 1.1367 8.916C0.3789 10.6637 0 12.5274 0 14.5071C0 16.4869 0.3789 18.3506 1.1367 20.0983C1.8945 21.8459 2.94121 23.3876 4.27683 24.7233C5.61246 26.0588 7.15411 27.1055 8.90178 27.8634C10.6495 28.6211 12.5132 29 14.4929 29Z" fill="#6FBC29"/>
<path d="M11.637 14.5355L6.60707 19.5655C6.55971 19.4707 6.52418 19.3381 6.5005 19.1676C6.47682 18.997 6.46498 18.7792 6.46498 18.514V10.5003C6.46498 9.98874 6.50761 9.65246 6.59286 9.49144L11.637 14.5355ZM14.5071 15.2886C14.384 15.2886 14.2561 15.2649 14.1235 15.2176C13.9909 15.1702 13.8488 15.0755 13.6972 14.9334L7.30329 8.52524C7.39802 8.44946 7.54958 8.38315 7.75797 8.32632C7.96638 8.26948 8.22214 8.24106 8.52526 8.24106H20.489C20.7921 8.24106 21.0479 8.26948 21.2563 8.32632C21.4647 8.38315 21.6115 8.44946 21.6967 8.52524L15.3029 14.9334C15.0566 15.1702 14.7913 15.2886 14.5071 15.2886ZM17.3347 14.5355L22.3788 9.49144C22.4641 9.65246 22.5067 9.98874 22.5067 10.5003V18.514C22.5067 18.7792 22.4949 18.997 22.4711 19.1676C22.4474 19.3381 22.4119 19.4707 22.3646 19.5655L17.3347 14.5355ZM14.4929 16.4537C14.9855 16.4537 15.4828 16.2217 15.9848 15.7575L16.4537 15.317L21.6541 20.5032C21.4647 20.6831 21.0716 20.7731 20.4749 20.7731H8.52526C7.91902 20.7731 7.52591 20.6831 7.34593 20.5032L12.5321 15.317L13.001 15.7575C13.5125 16.2217 14.0098 16.4537 14.4929 16.4537Z" fill="#FFF4CF"/>
</g>
<defs>
<clipPath id="clip0_61_164">
<rect width="28.9859" height="29" fill="white"/>
</clipPath>
</defs>
</svg>
