<svg width="35" height="50" viewBox="0 0 35 50" fill="none" xmlns="http://www.w3.org/2000/svg">
<path d="M34.0763 9.61745C34.0763 19.2893 33.0792 23.876 29.7887 28.6621C26.7974 33.149 19.2195 37.636 13.6357 38.2342C9.4479 38.7328 9.14877 38.6331 9.14877 36.4394C9.24848 32.6505 12.9377 25.4713 16.9261 21.1838C20.6154 17.3948 20.6154 17.3948 17.6241 18.8905C14.234 20.5855 8.94935 25.8702 7.15457 29.36C5.16037 33.3484 5.65892 41.9235 8.15167 46.211L10.3453 50L7.25428 47.1084C0.872837 41.0261 -1.61991 31.4539 1.07226 23.2777C2.76733 18.2922 9.04906 13.207 17.5244 10.0163C22.3105 8.1218 25.9 6.02789 28.5922 3.23601C30.9853 0.842967 32.8797 -0.453262 33.2786 0.144998C33.6774 0.643548 34.0763 4.93108 34.0763 9.61745Z" fill="#6FBC29"/>
</svg>
