<svg width="29" height="29" viewBox="0 0 29 29" fill="none" xmlns="http://www.w3.org/2000/svg">
<path d="M9.28001 1.73999C5.12284 1.73999 1.74001 5.12283 1.74001 9.27999V19.72C1.74001 23.8772 5.12284 27.26 9.28001 27.26H19.72C23.8772 27.26 27.26 23.8772 27.26 19.72V9.27999C27.26 5.12283 23.8772 1.73999 19.72 1.73999H9.28001ZM9.28001 2.89999H19.72C23.2502 2.89999 26.1 5.74983 26.1 9.27999V19.72C26.1 23.2501 23.2502 26.1 19.72 26.1H9.28001C5.74985 26.1 2.90001 23.2501 2.90001 19.72V9.27999C2.90001 5.74983 5.74985 2.89999 9.28001 2.89999ZM21.46 6.37999C20.8194 6.37999 20.3 6.89934 20.3 7.53999C20.3 8.18064 20.8194 8.69999 21.46 8.69999C22.1007 8.69999 22.62 8.18064 22.62 7.53999C22.62 6.89934 22.1007 6.37999 21.46 6.37999ZM14.5 8.11999C10.9833 8.11999 8.12001 10.9833 8.12001 14.5C8.12001 18.0167 10.9833 20.88 14.5 20.88C18.0167 20.88 20.88 18.0167 20.88 14.5C20.88 10.9833 18.0167 8.11999 14.5 8.11999ZM14.5 9.27999C17.3898 9.27999 19.72 11.6102 19.72 14.5C19.72 17.3898 17.3898 19.72 14.5 19.72C11.6102 19.72 9.28001 17.3898 9.28001 14.5C9.28001 11.6102 11.6102 9.27999 14.5 9.27999Z" fill="#FFF4CF"/>
</svg>
