<svg width="26" height="29" viewBox="0 0 26 29" fill="none" xmlns="http://www.w3.org/2000/svg">
<g clip-path="url(#clip0_61_169)">
<path d="M7.57669 4.97633C7.57669 5.75072 7.73729 6.46791 8.05848 7.1279C8.37968 7.78789 8.82187 8.35108 9.38506 8.81747C9.94825 9.28387 10.5862 9.60506 11.299 9.78106V18.1366C11.299 19.1134 11.3386 19.9757 11.4178 20.7237C11.497 21.4717 11.5982 22.1009 11.7214 22.6112C11.8446 23.1216 11.9766 23.5066 12.1174 23.7662C12.2582 24.0258 12.3946 24.1557 12.5266 24.1557C12.6586 24.1557 12.7972 24.0258 12.9424 23.7662C13.0876 23.5066 13.2196 23.1216 13.3384 22.6112C13.4572 22.1009 13.5562 21.4717 13.6354 20.7237C13.7146 19.9757 13.7542 19.1134 13.7542 18.1366V9.78106C14.467 9.60506 15.105 9.28387 15.6682 8.81747C16.2314 8.35108 16.6757 7.78789 17.0013 7.1279C17.327 6.46791 17.4898 5.75072 17.4898 4.97633C17.4898 4.06114 17.2676 3.22735 16.8232 2.47496C16.3787 1.72257 15.7825 1.12198 15.0345 0.67319C14.2866 0.224397 13.4506 0 12.5266 0C11.6114 0 10.7798 0.224397 10.0319 0.67319C9.28387 1.12198 8.68767 1.72257 8.24327 2.47496C7.79889 3.22735 7.57669 4.06114 7.57669 4.97633Z" fill="#6FBC29"/>
<path d="M11.1142 5.24032C10.6654 5.24032 10.2716 5.07092 9.93285 4.73214C9.59406 4.39334 9.42467 3.99514 9.42467 3.53755C9.42467 3.07996 9.59406 2.68396 9.93285 2.34956C10.2716 2.01517 10.6654 1.84798 11.1142 1.84798C11.5806 1.84798 11.981 2.01517 12.3154 2.34956C12.6498 2.68396 12.817 3.07996 12.817 3.53755C12.817 3.99514 12.6498 4.39334 12.3154 4.73214C11.981 5.07092 11.5806 5.24032 11.1142 5.24032Z" fill="#FFF4CF"/>
<path d="M12.5398 28.9867C14.5286 28.9867 16.2996 28.8305 17.8527 28.5181C19.4059 28.2058 20.7192 27.7834 21.7928 27.2509C22.8665 26.7186 23.6805 26.1158 24.2349 25.4426C24.7892 24.7694 25.0664 24.0677 25.0664 23.3372C25.0664 22.642 24.8706 22.0018 24.4791 21.4166C24.0875 20.8315 23.5617 20.3101 22.9017 19.8525C22.2417 19.3949 21.5091 19.0055 20.7039 18.6843C19.8987 18.3631 19.0803 18.1167 18.2488 17.9452C17.4171 17.7735 16.6361 17.6877 15.9058 17.6877V19.6149C16.5482 19.6237 17.2412 19.7139 17.9848 19.8855C18.7284 20.0571 19.4345 20.2925 20.1032 20.5917C20.772 20.8909 21.3221 21.2473 21.7533 21.6609C22.1845 22.0745 22.4001 22.5277 22.4001 23.0204C22.4001 23.5924 22.1537 24.1138 21.6609 24.5847C21.1681 25.0554 20.4795 25.4646 19.5951 25.8122C18.7107 26.1598 17.6679 26.4282 16.4667 26.6174C15.2656 26.8066 13.9566 26.9011 12.5398 26.9011C11.1142 26.9011 9.80085 26.8066 8.59967 26.6174C7.39849 26.4282 6.35571 26.162 5.47132 25.8189C4.58694 25.4756 3.90054 25.0664 3.41214 24.5913C2.92375 24.116 2.67956 23.5924 2.67956 23.0204C2.67956 22.5277 2.89295 22.0745 3.31974 21.6609C3.74654 21.2473 4.29434 20.8909 4.96313 20.5917C5.63192 20.2925 6.3403 20.0571 7.08829 19.8855C7.83629 19.7139 8.52707 19.6237 9.16066 19.6149V17.6877C8.43907 17.6877 7.66248 17.7735 6.8309 17.9452C5.99931 18.1167 5.18092 18.3631 4.37573 18.6843C3.57054 19.0055 2.83796 19.3949 2.17797 19.8525C1.51798 20.3101 0.989985 20.8315 0.593991 21.4166C0.197997 22.0018 0 22.642 0 23.3372C0 24.0677 0.279396 24.7694 0.838187 25.4426C1.39698 26.1158 2.21316 26.7186 3.28675 27.2509C4.36034 27.7834 5.67372 28.2058 7.22689 28.5181C8.78007 28.8305 10.551 28.9867 12.5398 28.9867Z" fill="#6FBC29"/>
</g>
<defs>
<clipPath id="clip0_61_169">
<rect width="25.0664" height="29" fill="white"/>
</clipPath>
</defs>
</svg>
