<svg width="24" height="26" viewBox="0 0 24 26" fill="none" xmlns="http://www.w3.org/2000/svg">
<g clip-path="url(#clip0_29_2)">
<path d="M2.43851 25.9999H21.5615C22.3221 25.9999 22.9187 25.8319 23.3512 25.4958C23.7837 25.1597 24 24.6982 24 24.1112C24 23.2024 23.722 22.2416 23.1659 21.2287C22.6097 20.2158 21.8111 19.2668 20.7701 18.3816C19.7291 17.4965 18.4694 16.777 16.9911 16.2232C15.5128 15.6694 13.8468 15.3925 11.9929 15.3925C10.1486 15.3925 8.48725 15.6694 7.00893 16.2232C5.53061 16.777 4.26858 17.4965 3.22282 18.3816C2.17707 19.2668 1.37849 20.2158 0.827097 21.2287C0.275699 22.2416 0 23.2024 0 24.1112C0 24.6982 0.216281 25.1597 0.648843 25.4958C1.08141 25.8319 1.67796 25.9999 2.43851 25.9999ZM12.0072 12.8508C13.0244 12.8508 13.9656 12.5739 14.8306 12.0201C15.6958 11.4663 16.3922 10.7161 16.9198 9.76941C17.4475 8.82276 17.7113 7.75777 17.7113 6.57444C17.7113 5.41005 17.4475 4.36636 16.9198 3.44337C16.3922 2.52039 15.6958 1.79383 14.8306 1.2637C13.9656 0.73357 13.0244 0.468506 12.0072 0.468506C10.9899 0.468506 10.0487 0.738303 9.18362 1.2779C8.3185 1.81749 7.62213 2.55116 7.0945 3.47888C6.56687 4.4066 6.30305 5.44793 6.30305 6.60285C6.30305 7.7767 6.56687 8.83459 7.0945 9.77651C7.62213 10.7184 8.3185 11.4663 9.18362 12.0201C10.0487 12.5739 10.9899 12.8508 12.0072 12.8508Z" fill="#6FBC29"/>
</g>
<defs>
<clipPath id="clip0_29_2">
<rect width="24" height="26" fill="white"/>
</clipPath>
</defs>
</svg>
