<svg width="29" height="29" viewBox="0 0 29 29" fill="none" xmlns="http://www.w3.org/2000/svg">
<g clip-path="url(#clip0_29_11)">
<path d="M14.4929 29C16.4727 29 18.3364 28.6211 20.0841 27.8634C21.8318 27.1055 23.3734 26.0588 24.709 24.7233C26.0447 23.3876 27.0914 21.8459 27.8491 20.0983C28.607 18.3506 28.9859 16.4869 28.9859 14.5071C28.9859 12.5274 28.607 10.6637 27.8491 8.916C27.0914 7.16833 26.0447 5.62668 24.709 4.29106C23.3734 2.95544 21.8294 1.90873 20.0769 1.15092C18.3246 0.393121 16.4585 0.0142212 14.4787 0.0142212C12.499 0.0142212 10.6353 0.393121 8.88758 1.15092C7.1399 1.90873 5.60062 2.95544 4.26973 4.29106C2.93884 5.62668 1.8945 7.16833 1.1367 8.916C0.3789 10.6637 0 12.5274 0 14.5071C0 16.4869 0.3789 18.3506 1.1367 20.0983C1.8945 21.8459 2.94121 23.3876 4.27683 24.7233C5.61246 26.0588 7.15411 27.1055 8.90178 27.8634C10.6495 28.6211 12.5132 29 14.4929 29Z" fill="#6FBC29"/>
<path d="M10.9265 17.9457C10.074 17.0931 9.31857 16.198 8.66023 15.2602C8.00189 14.3224 7.50459 13.3894 7.16831 12.4611C6.83204 11.5328 6.71126 10.6518 6.80598 9.81824C6.90071 8.98465 7.27014 8.24106 7.91427 7.58745C7.93321 7.56851 7.95926 7.54246 7.99241 7.50931C8.02557 7.47615 8.06583 7.4501 8.11319 7.43116C8.43525 7.18488 8.74785 7.00964 9.05097 6.90543C9.35409 6.80124 9.6359 6.78466 9.89639 6.8557C10.1569 6.92675 10.3913 7.10436 10.5997 7.38853L12.4042 9.94611C12.7074 10.3724 12.8329 10.7394 12.7808 11.0473C12.7287 11.3551 12.5369 11.6843 12.2053 12.0348L11.637 12.6316C11.5422 12.7358 11.502 12.8447 11.5162 12.9584C11.5304 13.072 11.5612 13.1715 11.6086 13.2568C11.7506 13.503 11.9874 13.8298 12.319 14.2372C12.6505 14.6445 13.0152 15.0471 13.4131 15.4448C13.8298 15.8616 14.2348 16.2311 14.6279 16.5532C15.021 16.8753 15.3455 17.1121 15.6013 17.2636C15.7054 17.3204 15.8215 17.3512 15.9493 17.356C16.0772 17.3607 16.1838 17.3252 16.269 17.2495L16.8374 16.6669C17.169 16.3353 17.491 16.1435 17.8035 16.0914C18.1161 16.0393 18.4903 16.1649 18.926 16.468C19.3239 16.7427 19.6744 16.989 19.9775 17.2068C20.2807 17.4247 20.5577 17.6212 20.8088 17.7964C21.0597 17.9717 21.2989 18.1398 21.5262 18.3008C21.9525 18.623 22.142 19.0066 22.0945 19.4517C22.0472 19.8969 21.8578 20.309 21.5262 20.688C21.4884 20.7353 21.4505 20.7827 21.4126 20.83C21.3747 20.8773 21.332 20.9247 21.2847 20.9722C20.6405 21.6162 19.9017 21.9833 19.0682 22.0733C18.2346 22.1633 17.3536 22.0402 16.4254 21.7039C15.497 21.3676 14.5639 20.8703 13.6262 20.2119C12.6884 19.5536 11.7885 18.7982 10.9265 17.9457Z" fill="#FFF4CF"/>
</g>
<defs>
<clipPath id="clip0_29_11">
<rect width="28.9859" height="29" fill="white"/>
</clipPath>
</defs>
</svg>
