<svg width="27" height="27" viewBox="0 0 27 27" fill="none" xmlns="http://www.w3.org/2000/svg">
<path d="M26.2801 0.00460655C26.2173 0.0146556 26.1571 0.0347474 26.0993 0.0648818L0.381871 11.1153C0.153327 11.2158 0.00514928 11.4418 0.000127957 11.6905C-0.00489337 11.9416 0.138256 12.1701 0.361779 12.2807L9.94554 17.0625L14.7274 26.6462C14.8379 26.8698 15.0664 27.0129 15.3176 27.0079C15.5662 27.0029 15.7922 26.8547 15.8927 26.6262L26.9431 0.908735C27.0386 0.697775 27.0135 0.449139 26.8753 0.263285C26.7397 0.0749244 26.5112 -0.0230204 26.2801 0.00460655ZM23.5476 2.55626L10.2871 15.8168L2.17004 11.7583L23.5476 2.55626ZM24.4518 3.46039L15.2498 24.838L11.1912 16.7209L24.4518 3.46039Z" fill="#FFF4CF"/>
</svg>
